<?xml version="1.0" standalone="no"?><!DOCTYPE svg PUBLIC "-//W3C//DTD SVG 1.1//EN" "http://www.w3.org/Graphics/SVG/1.1/DTD/svg11.dtd"><svg t="1780468020758" class="icon" viewBox="0 0 1024 1024" version="1.1" xmlns="http://www.w3.org/2000/svg" p-id="1893" xmlns:xlink="http://www.w3.org/1999/xlink" width="200" height="200"><path d="M512 1.897412C229.456314 1.897412 0 229.456314 0 512c0 282.553725 229.456314 510.102588 512 510.102588 282.553725 0 510.102588-227.548863 510.102588-510.092549 0-282.553725-227.548863-510.112627-510.092549-510.112627z" fill="#FA8B40" p-id="1894"></path><path d="M729.017725 240.941176C775.168 240.941176 813.176471 278.548078 813.176471 324.206431v384.281098C813.176471 755.491137 776.533333 793.098039 729.017725 793.098039H294.982275C248.832 793.098039 210.823529 755.491137 210.823529 708.487529V324.206431C210.823529 278.548078 247.466667 240.941176 294.982275 240.941176z m-93.485176 246.884393c-61.088627 0-77.382275 161.159529-130.319059 162.504784-54.302118 0-92.310588-96.697725-131.674353-96.697726h-2.710588c-39.373804 2.680471-80.092863 71.178039-101.817725 116.846432-23.070118 47.003608-2.710588 71.178039 29.866666 71.178039 17.648941 0 105.883608 1.345255 195.473569 4.025726h14.938353c51.230118 1.124392 102.460235 1.305098 138.480941 1.335215h27.125961c81.448157 0 100.452392-18.793412 84.158745-73.85851-16.283608-56.410353-62.443922-185.333961-123.52251-185.33396zM356.191373 434.196078v64.150589l3.513725 0.903529c7.067608 1.706667 14.426353 2.710588 21.785098 2.710588 12.649412 0 24.395294-2.710588 35.237647-7.228235l-60.53647-60.536471z m-8.58353-24.847058l-45.17647 45.17647 1.706666 2.981647a94.448941 94.448941 0 0 0 43.469804 37.677177v-85.835294z m117.458824 36.141176H379.683137l45.176471 45.176471 2.981647-1.706667c16.665098-9.999059 29.977098-25.118118 37.225412-43.469804z m-106.164706-59.632941h-64.150588l-0.90353 3.513725A94.569412 94.569412 0 0 0 291.137255 411.607843c0 12.649412 2.710588 24.395294 7.228235 35.237647l60.536471-60.988235z m105.712941-9.487059l-60.084706 60.536471h63.698824l0.903529-3.513726c1.706667-7.067608 2.710588-14.426353 2.710588-21.785098 0-12.649412-2.710588-24.395294-7.228235-35.237647z m-48.790588-48.338823v85.383529l45.17647-45.176471-1.706666-2.981647c-9.999059-16.665098-25.118118-29.967059-43.469804-37.225411zM381.490196 321.254902c-12.197647 0-23.943529 2.710588-34.785882 6.776471l60.53647 60.53647V324.86902l-3.513725-0.90353A94.569412 94.569412 0 0 0 381.490196 321.254902z m-42.917647 10.842353a92.230275 92.230275 0 0 0-40.658824 45.17647h85.835295z" fill="#FFFFFF" p-id="1895"></path></svg>