<?xml version="1.0" encoding="UTF-8"?>
<svg width="60px" height="14px" viewBox="0 0 60 14" version="1.1" xmlns="http://www.w3.org/2000/svg" xmlns:xlink="http://www.w3.org/1999/xlink">
    <title>星选商品</title>
    <g id="首页" stroke="none" stroke-width="1" fill="none" fill-rule="evenodd">
        <g id="首页全部" transform="translate(-16.000000, -443.000000)">
            <g id="星选商品" transform="translate(16.000000, 443.000000)">
                <path d="M1.03315343,6.0993228 L1.03315343,0.0948081264 L12.7833462,0.0948081264 L12.7833462,6.0993228 L1.03315343,6.0993228 Z M3.88589052,2.5282167 L9.9306091,2.5282167 L9.9306091,1.88036117 L3.88589052,1.88036117 L3.88589052,2.5282167 Z M3.88589052,4.31376975 L9.9306091,4.31376975 L9.9306091,3.66591422 L3.88589052,3.66591422 L3.88589052,4.31376975 Z M0,8.01128668 C0.267283475,7.97968397 0.480596248,7.93227991 0.639938319,7.86907449 C0.799280391,7.80586907 0.922641994,7.71369451 1.01002313,7.59255079 C1.09740427,7.47140707 1.15908507,7.31602709 1.19506554,7.12641084 C1.231046,6.93679458 1.2541763,6.70504138 1.26445644,6.43115124 L3.96299152,6.43115124 C3.95271139,6.54702784 3.94500129,6.65763732 3.93986122,6.76297968 C3.93472115,6.86832205 3.92701105,6.97366441 3.91673092,7.07900677 L5.56669237,7.07900677 L5.56669237,6.43115124 L8.57363146,6.43115124 L8.57363146,7.07900677 L13.0917502,7.07900677 L13.0917502,8.86455982 L8.57363146,8.86455982 L8.57363146,9.5282167 L12.382421,9.5282167 L12.382421,11.3137698 L8.57363146,11.3137698 L8.57363146,11.9616253 L13.8164996,11.9616253 L13.8164996,13.9051919 L0.169622205,13.9051919 L0.169622205,11.9616253 L5.56669237,11.9616253 L5.56669237,11.3137698 L2.06630686,11.3137698 L2.06630686,10.1918736 C1.55230018,10.434161 0.863531226,10.5869074 0,10.6501129 L0,8.01128668 Z M3.4541249,8.86455982 C3.3307633,9.11738149 3.1765613,9.33860045 2.99151889,9.5282167 L5.56669237,9.5282167 L5.56669237,8.86455982 L3.4541249,8.86455982 Z M23.4387047,-2.48689958e-14 L26.1372398,-2.48689958e-14 L26.1372398,0.979683973 L28.7586739,0.979683973 L28.7586739,3.25507901 L26.1372398,3.25507901 L26.1372398,4.503386 L29.0670779,4.503386 L29.0670779,6.77878104 L27.5713184,6.77878104 L27.5713184,7.33182844 C27.5713184,7.68999248 27.6047289,7.99548533 27.6715497,8.248307 C27.7383706,8.50112867 27.8900026,8.6275395 28.1264456,8.6275395 L29.2367001,8.6275395 L29.2367001,11.0609481 L27.6484194,11.0609481 C26.692367,11.0609481 26.003598,10.8160271 25.5821126,10.3261851 C25.1606271,9.83634312 24.9498843,9.10158014 24.9498843,8.12189616 L24.9498843,6.77878104 L24.4564379,6.77878104 C24.4255975,7.70579383 24.3356464,8.44845749 24.1865844,9.00677201 C24.0375225,9.56508653 23.8010794,9.99699022 23.4772552,10.3024831 C23.153431,10.6079759 22.7345155,10.81076 22.2205089,10.9108352 C21.7065022,11.0109105 21.0691339,11.0609481 20.308404,11.0609481 C20.5654074,11.2294959 20.9766127,11.3137698 21.54202,11.3137698 L29.3138011,11.3137698 L29.3138011,13.9209932 L20.7401696,13.9209932 C20.2878437,13.9209932 19.8946286,13.8709556 19.5605243,13.7708804 C19.2264199,13.6708051 18.925726,13.552295 18.6584426,13.4153499 C19.0902082,13.1730625 19.4140324,12.8069977 19.6299152,12.3171558 C19.845798,11.8273138 19.9640195,11.2558315 19.9845798,10.6027088 C20.0462606,10.7712566 20.1387818,10.9134688 20.2621434,11.0293454 L20.2621434,8.6275395 C20.5499871,8.6275395 20.7915703,8.59857035 20.9868928,8.54063205 C21.1822154,8.48269375 21.3389874,8.38261851 21.4572089,8.24040632 C21.5754305,8.09819413 21.6628116,7.90857788 21.7193524,7.67155756 C21.7758931,7.43453725 21.8144436,7.13694507 21.8350039,6.77878104 L20.3392444,6.77878104 L20.3392444,4.503386 L23.4387047,4.503386 L23.4387047,3.25507901 L22.2976099,3.25507901 C22.0611668,3.53950339 21.7527628,3.76072235 21.3723978,3.91873589 C20.9920329,4.07674944 20.5191467,4.15575621 19.9537394,4.15575621 L19.9537394,1.88036117 C20.1696222,1.88036117 20.3418144,1.85139202 20.4703161,1.79345372 C20.5988178,1.73551543 20.693909,1.64334086 20.7555898,1.51693002 C20.8172706,1.39051919 20.8558211,1.22460497 20.8712413,1.01918736 C20.8866615,0.813769752 20.8943716,0.558314522 20.8943716,0.25282167 L23.0377795,0.25282167 C23.0377795,0.379232506 23.0377795,0.503009782 23.0377795,0.624153499 C23.0377795,0.745297216 23.0274994,0.863807374 23.0069391,0.979683973 L23.4387047,0.979683973 L23.4387047,-2.48689958e-14 Z M31.0871241,2.76523702 L31.0871241,0.442437923 L36.2066307,0.442437923 L36.2066307,2.48689958e-14 L39.306091,2.48689958e-14 L39.306091,0.442437923 L44.4101773,0.442437923 L44.4101773,2.76523702 L31.0871241,2.76523702 Z M40.2929838,13.9051919 L40.2929838,12.6094808 L34.2636854,12.6094808 L34.2636854,8.6275395 L41.233616,8.6275395 L41.233616,11.5981941 C41.387818,11.5665914 41.5188897,11.4902182 41.6268311,11.3690745 C41.7347726,11.2479308 41.7887433,11.055681 41.7887433,10.7923251 L41.7887433,5.94130926 L40.2929838,5.94130926 C40.2929838,6.10985704 40.308404,6.23626787 40.3392444,6.32054176 C40.3700848,6.40481565 40.4317656,6.46802107 40.5242868,6.51015801 C40.616808,6.55229496 40.7453097,6.57599699 40.9097918,6.58126411 C41.074274,6.58653123 41.2901568,6.58916479 41.5574402,6.58916479 L41.5574402,8.54853273 C40.8686713,8.54853273 40.3006939,8.5116629 39.8535081,8.43792325 C39.4063223,8.3641836 39.0516577,8.23250564 38.7895143,8.04288939 C38.5273709,7.85327314 38.3448985,7.58991723 38.2420971,7.25282167 C38.1392958,6.91572611 38.0827551,6.4785553 38.0724749,5.94130926 L37.4248265,5.94130926 C37.4145464,6.4785553 37.3554356,6.91835967 37.2474942,7.26072235 C37.1395528,7.60308503 36.9519404,7.86907449 36.6846569,8.05869074 C36.4173734,8.248307 36.0627088,8.37735139 35.6206631,8.44582393 C35.1786173,8.51429646 34.61835,8.54853273 33.9398612,8.54853273 L33.9398612,6.58916479 C34.227705,6.58916479 34.4564379,6.58389767 34.6260601,6.57336343 C34.7956823,6.56282919 34.921614,6.5364936 35.0038551,6.49435666 C35.0860961,6.45221971 35.1400668,6.38638074 35.1657672,6.29683973 C35.1914675,6.20729872 35.2043177,6.08878856 35.2043177,5.94130926 L33.7085582,5.94130926 L33.7085582,14 L31.3184271,14 L31.3184271,3.90293454 L33.6622976,3.90293454 L33.6622976,3.09706546 L36.4533539,3.09706546 L36.4533539,3.90293454 L39.0593678,3.90293454 L39.0593678,3.09706546 L41.8504241,3.09706546 L41.8504241,3.90293454 L44.1788743,3.90293454 L44.1788743,11.234763 C44.1788743,11.6666667 44.1480339,12.0458992 44.0863531,12.3724605 C44.0246723,12.6990218 43.9090208,12.9781791 43.7393986,13.2099323 C43.5697764,13.4416855 43.3359034,13.6155004 43.0377795,13.731377 C42.7396556,13.8472536 42.3541506,13.9051919 41.8812645,13.9051919 L40.2929838,13.9051919 Z M36.4070933,11.0609481 L39.0902082,11.0609481 L39.0902082,10.1760722 L36.4070933,10.1760722 L36.4070933,11.0609481 Z M48.5582113,6.0993228 L48.5582113,0.0948081264 L57.7794911,0.0948081264 L57.7794911,6.0993228 L48.5582113,6.0993228 Z M51.4263685,3.82392777 L54.9113338,3.82392777 L54.9113338,2.37020316 L51.4263685,2.37020316 L51.4263685,3.82392777 Z M46.3377024,13.9051919 L46.3377024,6.84198646 L52.845027,6.84198646 L52.845027,13.9051919 L46.3377024,13.9051919 Z M48.8820355,11.6297968 L50.3161141,11.6297968 L50.3161141,9.11738149 L48.8820355,9.11738149 L48.8820355,11.6297968 Z" id="形状结合" fill="#000000" fill-rule="nonzero"></path>
                <path d="M60,6.84198646 L60,13.9051919 L53.4926754,13.9051919 L53.4926754,6.84198646 L60,6.84198646 Z M57.4556669,9.11738149 L56.0215883,9.11738149 L56.0215883,11.6297968 L57.4556669,11.6297968 L57.4556669,9.11738149 Z" id="形状结合" fill="#FF0057"></path>
                <path d="M16.0524287,0.0948081264 L19.074788,0.0948081264 L19.074788,2.5282167 L16.0524287,2.5282167 L16.0524287,0.0948081264 Z M15.3430995,3.09706546 L19.7841172,3.09706546 L19.7841172,8.6275395 C19.7841172,9.04890895 19.7738371,9.47554552 19.7532768,9.90744921 C19.7327165,10.3393529 19.6761758,10.7501881 19.5836546,11.1399549 C19.4911334,11.5297216 19.3523516,11.8931527 19.1673092,12.2302483 C18.9822668,12.5673439 18.7252634,12.8623025 18.3962992,13.1151242 C18.0673349,13.3679458 17.6535595,13.5654628 17.154973,13.7076749 C16.6563865,13.8498871 16.0524287,13.9209932 15.3430995,13.9209932 L15.3430995,11.3137698 C15.6001028,11.3137698 15.8185556,11.2874342 15.998458,11.234763 C16.1783603,11.1820918 16.3274223,11.0846501 16.4456438,10.9424379 C16.5638653,10.8002257 16.6486764,10.6079759 16.7000771,10.3656885 C16.7514778,10.1234011 16.7771781,9.81264108 16.7771781,9.43340858 L16.7771781,5.70428894 L15.3430995,5.70428894 L15.3430995,3.09706546 Z" id="形状结合" fill="#FF0057"></path>
            </g>
        </g>
    </g>
</svg>